<mxfile host="app.diagrams.net" modified="2023-02-08T02:50:20.207Z" agent="5.0 (Windows NT 10.0; Win64; x64) AppleWebKit/537.36 (KHTML, like Gecko) Chrome/109.0.0.0 Safari/537.36 Edg/109.0.1518.70" etag="k_Nsqxyng_hk4y-Qx39h" version="20.8.18" type="github">
  <diagram name="Page-1" id="74e2e168-ea6b-b213-b513-2b3c1d86103e">
    <mxGraphModel dx="1373" dy="774" grid="1" gridSize="10" guides="1" tooltips="1" connect="1" arrows="1" fold="1" page="1" pageScale="1" pageWidth="1100" pageHeight="850" background="none" math="0" shadow="0">
      <root>
        <mxCell id="0" />
        <mxCell id="1" parent="0" />
        <mxCell id="oz9p4cTDpWmSpgmov__A-6" style="edgeStyle=orthogonalEdgeStyle;rounded=0;orthogonalLoop=1;jettySize=auto;html=1;" edge="1" parent="1" source="oz9p4cTDpWmSpgmov__A-2" target="oz9p4cTDpWmSpgmov__A-4">
          <mxGeometry relative="1" as="geometry" />
        </mxCell>
        <mxCell id="oz9p4cTDpWmSpgmov__A-2" value="Página Principal (primer vista)" style="strokeWidth=2;html=1;shape=mxgraph.flowchart.start_2;whiteSpace=wrap;" vertex="1" parent="1">
          <mxGeometry x="460" y="27.5" width="100" height="100" as="geometry" />
        </mxCell>
        <mxCell id="oz9p4cTDpWmSpgmov__A-13" style="edgeStyle=orthogonalEdgeStyle;rounded=0;orthogonalLoop=1;jettySize=auto;html=1;" edge="1" parent="1" source="oz9p4cTDpWmSpgmov__A-4" target="oz9p4cTDpWmSpgmov__A-9">
          <mxGeometry relative="1" as="geometry" />
        </mxCell>
        <mxCell id="oz9p4cTDpWmSpgmov__A-14" value="" style="edgeStyle=orthogonalEdgeStyle;rounded=0;orthogonalLoop=1;jettySize=auto;html=1;" edge="1" parent="1" source="oz9p4cTDpWmSpgmov__A-4" target="oz9p4cTDpWmSpgmov__A-12">
          <mxGeometry relative="1" as="geometry" />
        </mxCell>
        <mxCell id="oz9p4cTDpWmSpgmov__A-4" value="¿Ya tiene una cuenta?&amp;nbsp;" style="strokeWidth=2;html=1;shape=mxgraph.flowchart.decision;whiteSpace=wrap;" vertex="1" parent="1">
          <mxGeometry x="460" y="210" width="100" height="100" as="geometry" />
        </mxCell>
        <mxCell id="oz9p4cTDpWmSpgmov__A-7" value="Click Btn Iniciar Sesión" style="text;html=1;strokeColor=none;fillColor=none;align=center;verticalAlign=middle;whiteSpace=wrap;rounded=0;" vertex="1" parent="1">
          <mxGeometry x="420" y="140" width="80" height="50" as="geometry" />
        </mxCell>
        <mxCell id="oz9p4cTDpWmSpgmov__A-20" value="" style="edgeStyle=orthogonalEdgeStyle;rounded=0;orthogonalLoop=1;jettySize=auto;html=1;" edge="1" parent="1" source="oz9p4cTDpWmSpgmov__A-9" target="oz9p4cTDpWmSpgmov__A-19">
          <mxGeometry relative="1" as="geometry" />
        </mxCell>
        <mxCell id="oz9p4cTDpWmSpgmov__A-9" value="Proceso para crear una cuenta" style="whiteSpace=wrap;html=1;strokeWidth=2;" vertex="1" parent="1">
          <mxGeometry x="250" y="230" width="120" height="60" as="geometry" />
        </mxCell>
        <mxCell id="oz9p4cTDpWmSpgmov__A-10" value="NO" style="text;html=1;strokeColor=none;fillColor=none;align=center;verticalAlign=middle;whiteSpace=wrap;rounded=0;" vertex="1" parent="1">
          <mxGeometry x="390" y="230" width="60" height="30" as="geometry" />
        </mxCell>
        <mxCell id="oz9p4cTDpWmSpgmov__A-11" value="SI" style="text;html=1;strokeColor=none;fillColor=none;align=center;verticalAlign=middle;whiteSpace=wrap;rounded=0;" vertex="1" parent="1">
          <mxGeometry x="570" y="230" width="60" height="30" as="geometry" />
        </mxCell>
        <mxCell id="oz9p4cTDpWmSpgmov__A-38" style="edgeStyle=orthogonalEdgeStyle;rounded=0;orthogonalLoop=1;jettySize=auto;html=1;exitX=0.5;exitY=1;exitDx=0;exitDy=0;entryX=0.5;entryY=0;entryDx=0;entryDy=0;" edge="1" parent="1" source="oz9p4cTDpWmSpgmov__A-12" target="oz9p4cTDpWmSpgmov__A-34">
          <mxGeometry relative="1" as="geometry" />
        </mxCell>
        <mxCell id="oz9p4cTDpWmSpgmov__A-12" value="Proceso para ingresar a la cuenta" style="whiteSpace=wrap;html=1;strokeWidth=2;" vertex="1" parent="1">
          <mxGeometry x="790" y="230" width="120" height="60" as="geometry" />
        </mxCell>
        <mxCell id="oz9p4cTDpWmSpgmov__A-15" value="Vista Formulario nueva cuenta, configuración de parámetros para el rastreo de costos" style="shape=note;whiteSpace=wrap;html=1;backgroundOutline=1;darkOpacity=0.05;" vertex="1" parent="1">
          <mxGeometry x="235" y="480" width="110" height="150" as="geometry" />
        </mxCell>
        <mxCell id="oz9p4cTDpWmSpgmov__A-16" value="" style="strokeWidth=2;html=1;shape=mxgraph.flowchart.annotation_2;align=left;labelPosition=right;pointerEvents=1;rotation=90;" vertex="1" parent="1">
          <mxGeometry x="265" y="410" width="50" height="125" as="geometry" />
        </mxCell>
        <mxCell id="oz9p4cTDpWmSpgmov__A-17" value="Azure SQL Database" style="strokeWidth=2;html=1;shape=mxgraph.flowchart.database;whiteSpace=wrap;" vertex="1" parent="1">
          <mxGeometry x="480" y="345" width="110" height="115" as="geometry" />
        </mxCell>
        <mxCell id="oz9p4cTDpWmSpgmov__A-23" style="edgeStyle=orthogonalEdgeStyle;rounded=0;orthogonalLoop=1;jettySize=auto;html=1;exitX=0;exitY=0.5;exitDx=0;exitDy=0;entryX=0;entryY=0.5;entryDx=0;entryDy=0;" edge="1" parent="1" source="oz9p4cTDpWmSpgmov__A-19" target="oz9p4cTDpWmSpgmov__A-9">
          <mxGeometry relative="1" as="geometry" />
        </mxCell>
        <mxCell id="oz9p4cTDpWmSpgmov__A-43" style="edgeStyle=orthogonalEdgeStyle;rounded=0;orthogonalLoop=1;jettySize=auto;html=1;exitX=1;exitY=0.5;exitDx=0;exitDy=0;entryX=0;entryY=0.5;entryDx=0;entryDy=0;entryPerimeter=0;" edge="1" parent="1" source="oz9p4cTDpWmSpgmov__A-19" target="oz9p4cTDpWmSpgmov__A-17">
          <mxGeometry relative="1" as="geometry" />
        </mxCell>
        <mxCell id="oz9p4cTDpWmSpgmov__A-47" style="edgeStyle=orthogonalEdgeStyle;rounded=0;orthogonalLoop=1;jettySize=auto;html=1;exitX=1;exitY=0.5;exitDx=0;exitDy=0;entryX=0;entryY=0.5;entryDx=0;entryDy=0;entryPerimeter=0;" edge="1" parent="1" source="oz9p4cTDpWmSpgmov__A-19" target="oz9p4cTDpWmSpgmov__A-46">
          <mxGeometry relative="1" as="geometry" />
        </mxCell>
        <mxCell id="oz9p4cTDpWmSpgmov__A-19" value="¿Registro exitoso?" style="rhombus;whiteSpace=wrap;html=1;strokeWidth=2;" vertex="1" parent="1">
          <mxGeometry x="240" y="352.5" width="100" height="100" as="geometry" />
        </mxCell>
        <mxCell id="oz9p4cTDpWmSpgmov__A-22" value="SI" style="text;html=1;strokeColor=none;fillColor=none;align=center;verticalAlign=middle;whiteSpace=wrap;rounded=0;" vertex="1" parent="1">
          <mxGeometry x="370" y="375" width="60" height="30" as="geometry" />
        </mxCell>
        <mxCell id="oz9p4cTDpWmSpgmov__A-24" value="NO" style="text;html=1;strokeColor=none;fillColor=none;align=center;verticalAlign=middle;whiteSpace=wrap;rounded=0;" vertex="1" parent="1">
          <mxGeometry x="150" y="310" width="60" height="30" as="geometry" />
        </mxCell>
        <mxCell id="oz9p4cTDpWmSpgmov__A-25" value="Vista Home Page" style="shape=note;whiteSpace=wrap;html=1;backgroundOutline=1;darkOpacity=0.05;" vertex="1" parent="1">
          <mxGeometry x="590" y="27.5" width="80" height="100" as="geometry" />
        </mxCell>
        <mxCell id="oz9p4cTDpWmSpgmov__A-26" value="" style="strokeWidth=2;html=1;shape=mxgraph.flowchart.annotation_2;align=left;labelPosition=right;pointerEvents=1;" vertex="1" parent="1">
          <mxGeometry x="560" y="15" width="50" height="125" as="geometry" />
        </mxCell>
        <mxCell id="oz9p4cTDpWmSpgmov__A-27" value="Vista Formulario de inicio de sesión" style="shape=note;whiteSpace=wrap;html=1;backgroundOutline=1;darkOpacity=0.05;" vertex="1" parent="1">
          <mxGeometry x="970" y="202.5" width="80" height="100" as="geometry" />
        </mxCell>
        <mxCell id="oz9p4cTDpWmSpgmov__A-28" value="" style="strokeWidth=2;html=1;shape=mxgraph.flowchart.annotation_2;align=left;labelPosition=right;pointerEvents=1;" vertex="1" parent="1">
          <mxGeometry x="920" y="190" width="80" height="125" as="geometry" />
        </mxCell>
        <mxCell id="oz9p4cTDpWmSpgmov__A-48" style="edgeStyle=orthogonalEdgeStyle;rounded=0;orthogonalLoop=1;jettySize=auto;html=1;exitX=0.5;exitY=1;exitDx=0;exitDy=0;entryX=1;entryY=0.5;entryDx=0;entryDy=0;entryPerimeter=0;" edge="1" parent="1" source="oz9p4cTDpWmSpgmov__A-34" target="oz9p4cTDpWmSpgmov__A-46">
          <mxGeometry relative="1" as="geometry" />
        </mxCell>
        <mxCell id="oz9p4cTDpWmSpgmov__A-50" style="edgeStyle=orthogonalEdgeStyle;rounded=0;orthogonalLoop=1;jettySize=auto;html=1;exitX=1;exitY=0.5;exitDx=0;exitDy=0;entryX=0.75;entryY=1;entryDx=0;entryDy=0;" edge="1" parent="1" source="oz9p4cTDpWmSpgmov__A-34" target="oz9p4cTDpWmSpgmov__A-12">
          <mxGeometry relative="1" as="geometry" />
        </mxCell>
        <mxCell id="oz9p4cTDpWmSpgmov__A-34" value="¿Ingreso exitoso?" style="rhombus;whiteSpace=wrap;html=1;strokeWidth=2;" vertex="1" parent="1">
          <mxGeometry x="790" y="390" width="110" height="100" as="geometry" />
        </mxCell>
        <mxCell id="oz9p4cTDpWmSpgmov__A-36" value="" style="endArrow=classic;html=1;rounded=0;entryX=-0.033;entryY=0.867;entryDx=0;entryDy=0;entryPerimeter=0;" edge="1" parent="1" source="oz9p4cTDpWmSpgmov__A-17" target="oz9p4cTDpWmSpgmov__A-12">
          <mxGeometry relative="1" as="geometry">
            <mxPoint x="620" y="570" as="sourcePoint" />
            <mxPoint x="780" y="290" as="targetPoint" />
          </mxGeometry>
        </mxCell>
        <mxCell id="oz9p4cTDpWmSpgmov__A-37" value="" style="shape=message;html=1;outlineConnect=0;" vertex="1" parent="oz9p4cTDpWmSpgmov__A-36">
          <mxGeometry width="20" height="14" relative="1" as="geometry">
            <mxPoint x="-10" y="-7" as="offset" />
          </mxGeometry>
        </mxCell>
        <mxCell id="oz9p4cTDpWmSpgmov__A-46" value="Fin del Proceso" style="strokeWidth=2;html=1;shape=mxgraph.flowchart.terminator;whiteSpace=wrap;" vertex="1" parent="1">
          <mxGeometry x="500" y="540" width="110" height="60" as="geometry" />
        </mxCell>
        <mxCell id="oz9p4cTDpWmSpgmov__A-49" value="SI" style="text;html=1;strokeColor=none;fillColor=none;align=center;verticalAlign=middle;whiteSpace=wrap;rounded=0;" vertex="1" parent="1">
          <mxGeometry x="790" y="520" width="60" height="30" as="geometry" />
        </mxCell>
        <mxCell id="oz9p4cTDpWmSpgmov__A-51" value="NO" style="text;html=1;strokeColor=none;fillColor=none;align=center;verticalAlign=middle;whiteSpace=wrap;rounded=0;" vertex="1" parent="1">
          <mxGeometry x="910" y="340" width="60" height="30" as="geometry" />
        </mxCell>
        <mxCell id="oz9p4cTDpWmSpgmov__A-52" value="SI" style="text;html=1;strokeColor=none;fillColor=none;align=center;verticalAlign=middle;whiteSpace=wrap;rounded=0;" vertex="1" parent="1">
          <mxGeometry x="420" y="480" width="60" height="30" as="geometry" />
        </mxCell>
        <mxCell id="oz9p4cTDpWmSpgmov__A-53" value="Vista Principal del Usuario registrado" style="shape=note;whiteSpace=wrap;html=1;backgroundOutline=1;darkOpacity=0.05;" vertex="1" parent="1">
          <mxGeometry x="515" y="640" width="90" height="120" as="geometry" />
        </mxCell>
        <mxCell id="oz9p4cTDpWmSpgmov__A-54" value="" style="strokeWidth=2;html=1;shape=mxgraph.flowchart.annotation_2;align=left;labelPosition=right;pointerEvents=1;rotation=90;" vertex="1" parent="1">
          <mxGeometry x="535" y="570" width="50" height="125" as="geometry" />
        </mxCell>
      </root>
    </mxGraphModel>
  </diagram>
</mxfile>
